<svg width="146" height="50" viewBox="0 0 146 50" fill="none" xmlns="http://www.w3.org/2000/svg">
            <path
                d="M20.5155 8.4779L0 0.0758832V41.4632L20.5155 50L41.3973 41.4632V33.0612L20.5155 41.4632L7.32696 36.0619V28.2826L20.5155 33.6839L41.3973 25.2819V16.8799L20.5155 25.2819L7.32696 19.8806V11.4786L20.5155 16.8799L41.3973 8.4779V0.0758832L20.5155 8.4779Z"
                fill="white" />
            <path
                d="M49.0354 6.92699C49.0354 6.08144 49.18 5.25541 49.4692 4.44889C49.7716 3.62935 50.2055 2.88787 50.7708 2.22444C51.3361 1.548 52.033 1.01466 52.8612 0.624405C53.6895 0.221143 54.6296 0.0195124 55.6814 0.0195124C56.9304 0.0195124 57.9953 0.305698 58.8762 0.87807C59.7702 1.43743 60.4276 2.1594 60.8483 3.04397L59.7636 3.7074C59.4612 3.09601 59.08 2.6147 58.6198 2.26347C58.1596 1.89923 57.6666 1.63906 57.1407 1.48296C56.628 1.32686 56.1152 1.24881 55.6025 1.24881C54.761 1.24881 54.0182 1.41792 53.374 1.75614C52.7298 2.08135 52.1842 2.52364 51.7371 3.083C51.3033 3.62935 50.9746 4.24725 50.7511 4.9367C50.5276 5.61314 50.4158 6.30259 50.4158 7.00504C50.4158 7.77254 50.5473 8.50752 50.8102 9.20997C51.0732 9.91243 51.4413 10.5368 51.9146 11.0832C52.3879 11.6165 52.9401 12.0458 53.5712 12.371C54.2154 12.6832 54.9122 12.8393 55.6616 12.8393C56.1875 12.8393 56.7266 12.7483 57.2788 12.5662C57.831 12.384 58.3437 12.1044 58.817 11.7271C59.3035 11.3499 59.6913 10.862 59.9806 10.2637L61.1244 10.849C60.8351 11.5385 60.3881 12.1239 59.7833 12.6052C59.1786 13.0865 58.5015 13.4507 57.7521 13.6979C57.0158 13.945 56.2927 14.0686 55.5827 14.0686C54.623 14.0686 53.7421 13.867 52.9401 13.4637C52.1381 13.0475 51.4413 12.5011 50.8497 11.8247C50.2712 11.1352 49.8242 10.3677 49.5087 9.52218C49.1931 8.66362 49.0354 7.79856 49.0354 6.92699Z"
                fill="white" />
            <path
                d="M71.6662 2.69275C71.469 2.4716 71.2389 2.27648 70.976 2.10737C70.713 1.92525 70.4172 1.76915 70.0885 1.63906C69.7598 1.50898 69.4049 1.40491 69.0236 1.32686C68.6555 1.24881 68.261 1.20978 67.8403 1.20978C66.6176 1.20978 65.717 1.44394 65.1385 1.91224C64.5732 2.36754 64.2905 2.99194 64.2905 3.78546C64.2905 4.33181 64.422 4.76109 64.685 5.07329C64.961 5.38549 65.3883 5.63916 65.9668 5.83428C66.5453 6.02941 67.2816 6.23104 68.1756 6.43918C69.1748 6.64731 70.0359 6.89447 70.759 7.18066C71.4821 7.46684 72.0409 7.8571 72.4353 8.35142C72.8298 8.83273 73.027 9.48966 73.027 10.3222C73.027 10.9596 72.9021 11.5125 72.6523 11.9808C72.4025 12.4491 72.0541 12.8393 71.607 13.1515C71.16 13.4637 70.6276 13.6979 70.0096 13.854C69.3917 13.9971 68.7146 14.0686 67.9784 14.0686C67.2553 14.0686 66.5584 13.9971 65.8879 13.854C65.2306 13.6979 64.6061 13.4767 64.0144 13.1906C63.4228 12.8914 62.8706 12.5141 62.3579 12.0588L63.0481 10.9466C63.2979 11.2068 63.5937 11.4539 63.9355 11.6881C64.2905 11.9092 64.6784 12.1109 65.0991 12.293C65.533 12.4751 65.9931 12.6182 66.4796 12.7223C66.9792 12.8133 67.4919 12.8588 68.0178 12.8588C69.1353 12.8588 70.0031 12.6572 70.621 12.2539C71.2521 11.8507 71.5676 11.2523 71.5676 10.4588C71.5676 9.88641 71.4098 9.43112 71.0943 9.0929C70.7788 8.74167 70.3055 8.45549 69.6744 8.23434C69.0433 8.0132 68.2676 7.79856 67.3473 7.59042C66.3744 7.36928 65.5527 7.12212 64.8822 6.84894C64.2116 6.57577 63.7055 6.21803 63.3636 5.77575C63.035 5.32045 62.8706 4.72206 62.8706 3.98058C62.8706 3.12203 63.081 2.40006 63.5017 1.81468C63.9356 1.21629 64.5272 0.767498 65.2766 0.468304C66.026 0.156101 66.8871 0 67.86 0C68.478 0 69.0499 0.0650421 69.5758 0.195126C70.1148 0.312202 70.6078 0.487816 71.0549 0.721968C71.515 0.95612 71.9423 1.24881 72.3367 1.60004L71.6662 2.69275Z"
                fill="white" />
            <path d="M75.461 13.9516V0.0975632H76.8414V13.9516H75.461Z" fill="white" />
            <path d="M90.2921 1.30735H85.3027V13.9516H83.9222V1.30735H78.9328V0.0975632H90.2921V1.30735Z" fill="white" />
            <path
                d="M63.8481 39.2746V41.7029H49.0616V20.1522H63.572V22.5805H51.8226V29.5617H62.0381V31.8382H51.8226V39.2746H63.8481Z"
                fill="white" />
            <path d="M67.6357 41.7029V20.1522H70.3967V39.2746H82.5449V41.7029H67.6357Z" fill="white" />
            <path d="M85.5508 41.7029V20.1522H88.3117V41.7029H85.5508Z" fill="white" />
            <path d="M109.226 22.5805H101.71V41.7029H98.9495V22.5805H91.4336V20.1522H109.226V22.5805Z" fill="white" />
            <path
                d="M127.15 39.2746V41.7029H112.363V20.1522H126.874V22.5805H115.124V29.5617H125.34V31.8382H115.124V39.2746H127.15Z"
                fill="white" />
            <path
                d="M143.73 24.6748C143.484 24.3915 143.157 24.1184 142.748 23.8553C142.339 23.5922 141.879 23.3595 141.368 23.1572C140.856 22.9346 140.294 22.7626 139.68 22.6412C139.087 22.4995 138.464 22.4287 137.809 22.4287C136.132 22.4287 134.895 22.7424 134.097 23.3697C133.3 23.997 132.901 24.857 132.901 25.9497C132.901 26.7186 133.105 27.3257 133.514 27.7708C133.923 28.216 134.547 28.5803 135.386 28.8636C136.245 29.1469 137.329 29.4403 138.637 29.7438C140.151 30.0676 141.46 30.4621 142.564 30.9276C143.669 31.393 144.517 32.0203 145.11 32.8094C145.703 33.5784 146 34.6104 146 35.9055C146 36.9375 145.795 37.8379 145.386 38.6069C144.998 39.3556 144.446 39.9829 143.73 40.4888C143.014 40.9744 142.176 41.3386 141.214 41.5815C140.253 41.8041 139.21 41.9154 138.085 41.9154C136.981 41.9154 135.897 41.8041 134.833 41.5815C133.79 41.3386 132.799 40.9946 131.858 40.5495C130.917 40.1043 130.038 39.5478 129.22 38.8801L130.539 36.5732C130.866 36.9172 131.285 37.2612 131.796 37.6052C132.328 37.929 132.921 38.2325 133.576 38.5158C134.251 38.7991 134.977 39.0318 135.754 39.2139C136.531 39.3758 137.329 39.4568 138.147 39.4568C139.701 39.4568 140.908 39.1836 141.767 38.6372C142.626 38.0706 143.055 37.2511 143.055 36.1786C143.055 35.3692 142.81 34.7217 142.319 34.236C141.848 33.7504 141.143 33.3457 140.202 33.0219C139.261 32.6982 138.116 32.3744 136.766 32.0506C135.294 31.6864 134.056 31.2918 133.054 30.8669C132.052 30.4217 131.295 29.845 130.784 29.1367C130.293 28.4285 130.048 27.5078 130.048 26.3746C130.048 24.9986 130.385 23.8351 131.06 22.884C131.735 21.9329 132.666 21.2146 133.852 20.7289C135.038 20.2433 136.378 20.0005 137.871 20.0005C138.852 20.0005 139.762 20.1016 140.601 20.304C141.46 20.5064 142.257 20.7896 142.994 21.1539C143.73 21.5181 144.405 21.9532 145.018 22.4591L143.73 24.6748Z"
                fill="white" />
        </svg>