<svg width="62" height="78" viewBox="0 0 62 78" fill="none" xmlns="http://www.w3.org/2000/svg">
<path d="M38.6667 0.666748H8.00004C3.78337 0.666748 0.333374 4.11675 0.333374 8.33342V69.6667C0.333374 73.8834 3.78337 77.3334 8.00004 77.3334H54C58.2167 77.3334 61.6667 73.8834 61.6667 69.6667V23.6667L38.6667 0.666748ZM31 31.3334C35.2167 31.3334 38.6667 34.7834 38.6667 39.0001C38.6667 43.2168 35.2167 46.6667 31 46.6667C26.7834 46.6667 23.3334 43.2168 23.3334 39.0001C23.3334 34.7834 26.7834 31.3334 31 31.3334ZM46.3334 62.0001H15.6667V59.8151C15.6667 56.7101 17.5067 53.9501 20.3434 52.7234C23.7046 51.2564 27.3326 50.4992 31 50.4992C34.6675 50.4992 38.2954 51.2564 41.6567 52.7234C43.0455 53.317 44.2292 54.3057 45.0606 55.5665C45.8921 56.8274 46.3347 58.3048 46.3334 59.8151V62.0001Z" fill="white"/>
</svg>
