<svg width="92" height="92" viewBox="0 0 92 92" fill="none" xmlns="http://www.w3.org/2000/svg">
<path fill-rule="evenodd" clip-rule="evenodd" d="M63.9016 50.3315C69.1533 53.8965 72.8333 58.7265 72.8333 65.1665V76.6665H88.1666V65.1665C88.1666 56.8099 74.4816 51.8649 63.9016 50.3315V50.3315Z" fill="white"/>
<path d="M34.5 45.9999C42.9683 45.9999 49.8333 39.135 49.8333 30.6666C49.8333 22.1982 42.9683 15.3333 34.5 15.3333C26.0316 15.3333 19.1666 22.1982 19.1666 30.6666C19.1666 39.135 26.0316 45.9999 34.5 45.9999Z" fill="white"/>
<path fill-rule="evenodd" clip-rule="evenodd" d="M57.5 45.9999C65.9717 45.9999 72.8334 39.1383 72.8334 30.6666C72.8334 22.1949 65.9717 15.3333 57.5 15.3333C55.6984 15.3333 54.0117 15.7166 52.4017 16.2533C55.7004 20.3328 57.4999 25.4203 57.4999 30.6666C57.4999 35.9129 55.7004 41.0004 52.4017 45.0799C54.0117 45.6166 55.6984 45.9999 57.5 45.9999ZM34.5 49.8333C24.265 49.8333 3.83337 54.9699 3.83337 65.1666V76.6666H65.1667V65.1666C65.1667 54.9699 44.735 49.8333 34.5 49.8333Z" fill="white"/>
</svg>
