<svg width="78" height="82" viewBox="0 0 78 82" fill="none" xmlns="http://www.w3.org/2000/svg">
<path d="M35 77.3334H8.16667C6.13334 77.3334 4.18329 76.5257 2.74551 75.0879C1.30774 73.6501 0.5 71.7001 0.5 69.6667L0.538333 16.0001C0.538333 11.7834 3.91167 8.33341 8.16667 8.33341H12V0.666748H19.6667V8.33341H50.3333V0.666748H58V8.33341H61.8333C66.05 8.33341 69.5 11.7834 69.5 16.0001V39.0001H61.8333V31.3334H8.16667V69.6667H35V77.3334ZM73.8317 58.1284L76.5533 55.4067C76.9087 55.0521 77.1906 54.6309 77.383 54.1671C77.5754 53.7034 77.6744 53.2063 77.6744 52.7042C77.6744 52.2022 77.5754 51.7051 77.383 51.2414C77.1906 50.7776 76.9087 50.3564 76.5533 50.0017L73.8317 47.2801C73.477 46.9247 73.0558 46.6428 72.5921 46.4504C72.1283 46.2581 71.6312 46.159 71.1292 46.159C70.6271 46.159 70.13 46.2581 69.6663 46.4504C69.2025 46.6428 68.7813 46.9247 68.4267 47.2801L65.705 50.0017L73.8317 58.1284ZM71.11 60.8501L50.7933 81.1667H42.6667V73.0401L62.9833 52.7234L71.11 60.8501Z" fill="white"/>
</svg>
